<?xml version="1.0" encoding="UTF-8"?>
<svg version="1.1" xmlns="http://www.w3.org/2000/svg" width="1800" height="1800">
<path d="M0 0 C6.36333584 3.73122874 12.74915188 7.42269426 19.140625 11.10546875 C20.21892578 11.72703857 21.29722656 12.3486084 22.40820312 12.98901367 C25.69372536 14.88249399 28.97961114 16.77534177 32.265625 18.66796875 C45.94116814 26.54459464 59.60523458 34.43916967 73.23144531 42.40087891 C83.79182782 48.56715929 94.38689266 54.67292825 104.98339844 60.77685547 C110.41222442 63.90477023 115.83881781 67.03655323 121.265625 70.16796875 C123.43228083 71.41798754 125.5989475 72.66798753 127.765625 73.91796875 C132.09895833 76.41796875 136.43229167 78.91796875 140.765625 81.41796875 C141.83828613 82.03679932 142.91094727 82.65562988 144.01611328 83.29321289 C146.18119571 84.54232393 148.34623482 85.79151004 150.51123047 87.04077148 C155.95178206 90.17999184 161.39309716 93.31787438 166.8359375 96.453125 C178.3201132 103.07019767 189.78759394 109.71430852 201.23144531 116.40087891 C211.79182782 122.56715929 222.38689266 128.67292825 232.98339844 134.77685547 C239.49433757 138.52824899 246.00225694 142.28487869 252.51074219 146.04052734 C257.95147836 149.17979121 263.39293977 152.31778372 268.8359375 155.453125 C280.3201132 162.07019767 291.78759394 168.71430852 303.23144531 175.40087891 C313.79182782 181.56715929 324.38689266 187.67292825 334.98339844 193.77685547 C340.41222442 196.90477023 345.83881781 200.03655323 351.265625 203.16796875 C353.43228083 204.41798754 355.5989475 205.66798753 357.765625 206.91796875 C362.09895833 209.41796875 366.43229167 211.91796875 370.765625 214.41796875 C371.83828613 215.03679932 372.91094727 215.65562988 374.01611328 216.29321289 C376.18119571 217.54232393 378.34623482 218.79151004 380.51123047 220.04077148 C385.95178206 223.17999184 391.39309716 226.31787438 396.8359375 229.453125 C408.3201132 236.07019767 419.78759394 242.71430852 431.23144531 249.40087891 C441.79182782 255.56715929 452.38689266 261.67292825 462.98339844 267.77685547 C469.49433757 271.52824899 476.00225694 275.28487869 482.51074219 279.04052734 C487.95147836 282.17979121 493.39293977 285.31778372 498.8359375 288.453125 C510.3201132 295.07019767 521.78759394 301.71430852 533.23144531 308.40087891 C543.79182782 314.56715929 554.38689266 320.67292825 564.98339844 326.77685547 C571.49433757 330.52824899 578.00225694 334.28487869 584.51074219 338.04052734 C589.95147836 341.17979121 595.39293977 344.31778372 600.8359375 347.453125 C611.63464445 353.67472116 622.42748463 359.90649358 633.203125 366.16796875 C634.15525879 366.71912354 635.10739258 367.27027832 636.08837891 367.83813477 C659.51183004 381.47598142 676.30326357 396.11547039 684.40073681 423.06863213 C687.73564699 435.86464235 686.83480641 449.43249865 686.79583034 462.5586529 C686.78809436 466.66600625 686.80368139 470.77328551 686.8162052 474.88061798 C686.83494966 482.06774896 686.83901332 489.2547698 686.83328056 496.44192123 C686.82481656 507.12955337 686.83929096 517.81706998 686.8583186 528.50468415 C686.88967212 546.48941366 686.90240491 564.47411126 686.90430641 582.45886612 C686.90622142 600.26953724 686.91596742 618.08017474 686.9362545 635.89083481 C686.93751101 636.99955335 686.93876753 638.10827188 686.94006212 639.25058795 C686.94518967 643.75138136 686.95037668 648.2521747 686.95564087 652.75296795 C687.00359339 693.75441535 687.03258946 734.75585317 687.04956055 775.75732422 C687.06559151 814.45135092 687.09284352 853.14534665 687.13354492 891.83935547 C687.13479594 893.031521 687.13604695 894.22368654 687.13733588 895.45197831 C687.1436391 901.45677992 687.14996073 907.46158151 687.15628855 913.46638309 C687.15753703 914.65136442 687.15878551 915.83634575 687.16007182 917.05723561 C687.16259151 919.44674536 687.16511515 921.83625512 687.16764276 924.22576487 C687.2078501 962.2872002 687.239645 1000.34864288 687.26930121 1038.41008774 C687.27799361 1049.54946781 687.28700351 1060.68884743 687.29681611 1071.82822657 C687.31734844 1095.25192761 687.33509389 1118.67562418 687.34334896 1142.09933318 C687.34682726 1151.78600705 687.3517863 1161.4726737 687.36128807 1171.15934372 C687.36916044 1179.19182678 687.37365595 1187.22430235 687.37357303 1195.25678945 C687.37362505 1199.29876527 687.3752256 1203.34072341 687.38126848 1207.38269509 C687.38673491 1211.06649617 687.38747497 1214.75026812 687.38459088 1218.43407185 C687.38424582 1220.36891625 687.3887885 1222.30375969 687.39358619 1224.23859817 C687.37580507 1235.61992293 687.21739748 1247.06775098 684.203125 1258.10546875 C683.98760986 1258.90331787 683.77209473 1259.70116699 683.55004883 1260.52319336 C680.02749327 1272.73950859 673.75255475 1283.20912066 665.265625 1292.66796875 C664.49025391 1293.58255859 664.49025391 1293.58255859 663.69921875 1294.515625 C652.8282749 1306.47638778 635.53627695 1313.78952912 621.71777344 1321.69189453 C616.18490155 1324.8590137 610.66257005 1328.04434797 605.140625 1331.23046875 C604.06393555 1331.85131348 602.98724609 1332.4721582 601.87792969 1333.11181641 C593.67106374 1337.84749665 585.48478804 1342.61779177 577.30419922 1347.39868164 C568.87993161 1352.31848157 560.43008604 1357.19319013 551.9765625 1362.0625 C544.72610959 1366.24146033 537.49078637 1370.44544864 530.265625 1374.66796875 C516.53515683 1382.69078553 502.75484414 1390.62655203 488.97460938 1398.56347656 C477.38880734 1405.23753187 465.81009147 1411.92260959 454.265625 1418.66796875 C440.53507312 1426.69064386 426.75484534 1434.62655134 412.97460938 1442.56347656 C400.3979858 1449.80829923 387.83525543 1457.07529685 375.30419922 1464.39868164 C366.87993161 1469.31848157 358.43008604 1474.19319013 349.9765625 1479.0625 C342.72610959 1483.24146033 335.49078637 1487.44544864 328.265625 1491.66796875 C314.53515683 1499.69078553 300.75484414 1507.62655203 286.97460938 1515.56347656 C274.3979858 1522.80829923 261.83525543 1530.07529685 249.30419922 1537.39868164 C240.87993161 1542.31848157 232.43008604 1547.19319013 223.9765625 1552.0625 C216.72610959 1556.24146033 209.49078637 1560.44544864 202.265625 1564.66796875 C188.53515683 1572.69078553 174.75484414 1580.62655203 160.97460938 1588.56347656 C148.3979858 1595.80829923 135.83525543 1603.07529685 123.30419922 1610.39868164 C114.87993161 1615.31848157 106.43008604 1620.19319013 97.9765625 1625.0625 C90.72610959 1629.24146033 83.49078637 1633.44544864 76.265625 1637.66796875 C62.53515683 1645.69078553 48.75484414 1653.62655203 34.97460938 1661.56347656 C24.3799661 1667.66657024 13.78602184 1673.77031235 3.22851562 1679.9375 C1.26191532 1681.08608792 -0.70552619 1682.23323682 -2.67382812 1683.37890625 C-7.39274344 1686.12615596 -12.10468813 1688.88346417 -16.79644775 1691.6769104 C-18.52198594 1692.70226245 -20.25063407 1693.72214981 -21.98046875 1694.74023438 C-24.15277931 1696.01976296 -26.31992586 1697.30812168 -28.48046875 1698.60742188 C-48.4984861 1710.33813423 -71.97354745 1714.42995265 -94.63671875 1708.625 C-113.49407247 1702.79895755 -130.55139322 1691.25921169 -147.46875 1681.3359375 C-153.83208584 1677.60470876 -160.21790188 1673.91324324 -166.609375 1670.23046875 C-168.22682617 1669.29811401 -168.22682617 1669.29811401 -169.87695312 1668.34692383 C-173.16247536 1666.45344351 -176.44836114 1664.56059573 -179.734375 1662.66796875 C-193.40991814 1654.79134286 -207.07398458 1646.89676783 -220.70019531 1638.93505859 C-231.26057782 1632.76877821 -241.85564266 1626.66300925 -252.45214844 1620.55908203 C-258.96308757 1616.80768851 -265.47100694 1613.05105881 -271.97949219 1609.29541016 C-277.42022836 1606.15614629 -282.86168977 1603.01815378 -288.3046875 1599.8828125 C-299.7888632 1593.26573983 -311.25634394 1586.62162898 -322.70019531 1579.93505859 C-333.26057782 1573.76877821 -343.85564266 1567.66300925 -354.45214844 1561.55908203 C-359.88097442 1558.43116727 -365.30756781 1555.29938427 -370.734375 1552.16796875 C-372.90103083 1550.91794996 -375.0676975 1549.66794997 -377.234375 1548.41796875 C-381.56770833 1545.91796875 -385.90104167 1543.41796875 -390.234375 1540.91796875 C-391.30703613 1540.29913818 -392.37969727 1539.68030762 -393.48486328 1539.04272461 C-395.64994571 1537.79361357 -397.81498482 1536.54442746 -399.97998047 1535.29516602 C-405.42053206 1532.15594566 -410.86184716 1529.01806312 -416.3046875 1525.8828125 C-427.7888632 1519.26573983 -439.25634394 1512.62162898 -450.70019531 1505.93505859 C-461.26057782 1499.76877821 -471.85564266 1493.66300925 -482.45214844 1487.55908203 C-488.96308757 1483.80768851 -495.47100694 1480.05105881 -501.97949219 1476.29541016 C-507.42022836 1473.15614629 -512.86168977 1470.01815378 -518.3046875 1466.8828125 C-529.7888632 1460.26573983 -541.25634394 1453.62162898 -552.70019531 1446.93505859 C-563.26057782 1440.76877821 -573.85564266 1434.66300925 -584.45214844 1428.55908203 C-589.88097442 1425.43116727 -595.30756781 1422.29938427 -600.734375 1419.16796875 C-602.90103083 1417.91794996 -605.0676975 1416.66794997 -607.234375 1415.41796875 C-611.56770833 1412.91796875 -615.90104167 1410.41796875 -620.234375 1407.91796875 C-621.30703613 1407.29913818 -622.37969727 1406.68030762 -623.48486328 1406.04272461 C-625.64994571 1404.79361357 -627.81498482 1403.54442746 -629.97998047 1402.29516602 C-635.42053206 1399.15594566 -640.86184716 1396.01806312 -646.3046875 1392.8828125 C-657.7888632 1386.26573983 -669.25634394 1379.62162898 -680.70019531 1372.93505859 C-691.26057782 1366.76877821 -701.85564266 1360.66300925 -712.45214844 1354.55908203 C-718.96308757 1350.80768851 -725.47100694 1347.05105881 -731.97949219 1343.29541016 C-737.42022836 1340.15614629 -742.86168977 1337.01815378 -748.3046875 1333.8828125 C-759.10339445 1327.66121634 -769.89623463 1321.42944392 -780.671875 1315.16796875 C-781.62400879 1314.61681396 -782.57614258 1314.06565918 -783.55712891 1313.49780273 C-806.98058004 1299.85995608 -823.77201357 1285.22046711 -831.86948681 1258.26730537 C-835.20439699 1245.47129515 -834.30355641 1231.90343885 -834.26458034 1218.7772846 C-834.25684436 1214.66993125 -834.27243139 1210.56265199 -834.2849552 1206.45531952 C-834.30369966 1199.26818854 -834.30776332 1192.0811677 -834.30203056 1184.89401627 C-834.29356656 1174.20638413 -834.30804096 1163.51886752 -834.3270686 1152.83125335 C-834.35842212 1134.84652384 -834.37115491 1116.86182624 -834.37305641 1098.87707138 C-834.37497142 1081.06640026 -834.38471742 1063.25576276 -834.4050045 1045.44510269 C-834.40626101 1044.33638415 -834.40751753 1043.22766562 -834.40881212 1042.08534955 C-834.41393967 1037.58455614 -834.41912668 1033.0837628 -834.42439087 1028.58296955 C-834.47234339 987.58152215 -834.50133946 946.58008433 -834.51831055 905.57861328 C-834.53434151 866.88458658 -834.56159352 828.19059085 -834.60229492 789.49658203 C-834.60354594 788.3044165 -834.60479695 787.11225096 -834.60608588 785.88395919 C-834.6123891 779.87915758 -834.61871073 773.87435599 -834.62503855 767.86955441 C-834.62628703 766.68457308 -834.62753551 765.49959175 -834.62882182 764.27870189 C-834.63134151 761.88919214 -834.63386515 759.49968238 -834.63639276 757.11017263 C-834.6766001 719.0487373 -834.708395 680.98729462 -834.73805121 642.92584976 C-834.74674361 631.78646969 -834.75575351 620.64709007 -834.76556611 609.50771093 C-834.78609844 586.08400989 -834.80384389 562.66031332 -834.81209896 539.23660432 C-834.81557726 529.54993045 -834.8205363 519.8632638 -834.83003807 510.17659378 C-834.83791044 502.14411072 -834.84240595 494.11163515 -834.84232303 486.07914805 C-834.84237505 482.03717223 -834.8439756 477.99521409 -834.85001848 473.95324241 C-834.85548491 470.26944133 -834.85622497 466.58566938 -834.85334088 462.90186565 C-834.85299582 460.96702125 -834.8575385 459.03217781 -834.86233619 457.09733933 C-834.82238033 431.52241933 -830.79163271 407.0888017 -812.35986328 388.05493164 C-801.02129498 376.88730539 -787.52856978 369.91037504 -773.68554688 362.3046875 C-769.85003613 360.17751477 -766.06577378 357.97300604 -762.296875 355.73046875 C-755.28771553 351.56915937 -748.23634535 347.4846716 -741.171875 343.41796875 C-732.67781201 338.52651551 -724.1967193 333.61409574 -715.734375 328.66796875 C-702.00395162 320.64507617 -688.22359351 312.70938511 -674.44335938 304.77246094 C-661.8667358 297.52763827 -649.30400543 290.26064065 -636.77294922 282.93725586 C-628.34868161 278.01745593 -619.89883604 273.14274737 -611.4453125 268.2734375 C-604.19485959 264.09447717 -596.95953637 259.89048886 -589.734375 255.66796875 C-576.00390683 247.64515197 -562.22359414 239.70938547 -548.44335938 231.77246094 C-536.85755734 225.09840563 -525.27884147 218.41332791 -513.734375 211.66796875 C-500.00382312 203.64529364 -486.22359534 195.70938616 -472.44335938 187.77246094 C-459.8667358 180.52763827 -447.30400543 173.26064065 -434.77294922 165.93725586 C-426.34868161 161.01745593 -417.89883604 156.14274737 -409.4453125 151.2734375 C-402.19485959 147.09447717 -394.95953637 142.89048886 -387.734375 138.66796875 C-374.00390683 130.64515197 -360.22359414 122.70938547 -346.44335938 114.77246094 C-333.8667358 107.52763827 -321.30400543 100.26064065 -308.77294922 92.93725586 C-300.34868161 88.01745593 -291.89883604 83.14274737 -283.4453125 78.2734375 C-276.19485959 74.09447717 -268.95953637 69.89048886 -261.734375 65.66796875 C-248.00390683 57.64515197 -234.22359414 49.70938547 -220.44335938 41.77246094 C-208.85755734 35.09840563 -197.27884147 28.41332791 -185.734375 21.66796875 C-174.20747641 14.9328744 -162.64636069 8.25802405 -151.078125 1.59423828 C-146.46660075 -1.06237141 -141.8558536 -3.72032682 -137.24560547 -6.37915039 C-135.06772618 -7.63516023 -132.88967994 -8.89088064 -130.71142578 -10.14624023 C-129.71095215 -10.72317627 -128.71047852 -11.3001123 -127.6796875 -11.89453125 C-126.70153076 -12.45760986 -125.72337402 -13.02068848 -124.71557617 -13.60083008 C-122.65640583 -14.79660249 -120.6049061 -16.00564744 -118.55981445 -17.2253418 C-75.62256253 -42.75947724 -38.60992258 -22.64755973 0 0 Z M-83.359375 328.79296875 C-84.46539063 329.00179688 -85.57140625 329.210625 -86.7109375 329.42578125 C-96.35571143 331.96987516 -105.23022975 337.99436462 -113.734375 343.04296875 C-115.8378647 344.28109876 -117.94206105 345.51802881 -120.046875 346.75390625 C-121.13742187 347.39424805 -122.22796875 348.03458984 -123.3515625 348.69433594 C-129.12184424 352.06088888 -134.92882279 355.36279205 -140.734375 358.66796875 C-150.45618242 364.2068288 -160.14333702 369.80172587 -169.80126953 375.45141602 C-180.32522125 381.60563617 -190.88817637 387.69166871 -201.45214844 393.77685547 C-206.88097442 396.90477023 -212.30756781 400.03655323 -217.734375 403.16796875 C-219.90103083 404.41798754 -222.0676975 405.66798753 -224.234375 406.91796875 C-225.306875 407.53671875 -226.379375 408.15546875 -227.484375 408.79296875 C-445.234375 534.41796875 -445.234375 534.41796875 -448.48730469 536.29443359 C-450.64446615 537.53909954 -452.80136912 538.78421361 -454.95800781 540.02978516 C-460.51801102 543.24019523 -466.08287931 546.44176187 -471.65625 549.62890625 C-503.61657294 566.28273953 -503.61657294 566.28273953 -522.109375 595.85546875 C-523.88120563 606.66363562 -523.87825652 617.39380637 -523.86808777 628.31561279 C-523.86995756 630.21992387 -523.87225894 632.12423457 -523.87495309 634.02854466 C-523.88105659 639.24645406 -523.88093921 644.46434741 -523.87975872 649.68225956 C-523.87955434 655.31567188 -523.88507693 660.94907909 -523.88981628 666.58248901 C-523.89811532 677.61356976 -523.90087078 688.64464516 -523.90142866 699.67572877 C-523.90190415 708.64371629 -523.90396056 717.61170206 -523.90712929 726.57968903 C-523.91450159 747.87841675 -523.92065434 769.177143 -523.92013073 790.47587204 C-523.92011515 791.15654026 -523.92009957 791.83720848 -523.92008352 792.53850302 C-523.92000042 795.98816904 -523.91990138 799.43783507 -523.91979881 802.88750109 C-523.91977887 803.57257906 -523.91975892 804.25765702 -523.91973837 804.96349492 C-523.91969794 806.34888853 -523.91965614 807.73428213 -523.91961298 809.11967573 C-523.91900032 830.6709364 -523.92650626 852.22218133 -523.94018555 873.7734375 C-523.95555906 898.00369686 -523.96413835 922.23394265 -523.96322232 946.46420789 C-523.96289052 959.28710727 -523.96563061 972.10998891 -523.97640038 984.93288422 C-523.98551098 995.85010569 -523.98767599 1006.76730136 -523.98089095 1017.68452498 C-523.97762867 1023.25177949 -523.9775586 1028.8189845 -523.9862442 1034.38623428 C-523.99412285 1039.4888309 -523.99266381 1044.5913389 -523.98396007 1049.6939334 C-523.9824281 1051.53371029 -523.98422975 1053.37349385 -523.98982015 1055.21326289 C-524.04573324 1074.92953533 -522.86517495 1093.02459979 -508.515625 1107.98046875 C-498.83281819 1117.29557404 -487.88648222 1121.61970588 -474.546875 1122.04296875 C-457.56605596 1121.65969217 -444.988405 1113.06442662 -430.734375 1104.66796875 C-428.76638189 1103.52083593 -426.79763966 1102.37498724 -424.828125 1101.23046875 C-420.84670816 1098.91487803 -416.869259 1096.59267771 -412.89453125 1094.265625 C-403.29495262 1088.651182 -393.65301549 1083.10996555 -384.01660156 1077.55908203 C-378.58777558 1074.43116727 -373.16118219 1071.29938427 -367.734375 1068.16796875 C-365.56771917 1066.91794996 -363.4010525 1065.66794997 -361.234375 1064.41796875 C-359.625625 1063.48984375 -359.625625 1063.48984375 -357.984375 1062.54296875 C-192.234375 966.91796875 -192.234375 966.91796875 -188.98339844 965.04248047 C-186.81990024 963.79425841 -184.65648857 962.54588636 -182.49316406 961.29736328 C-177.02872483 958.14391619 -171.56273855 954.99320779 -166.09375 951.84765625 C-164.43279297 950.89149414 -164.43279297 950.89149414 -162.73828125 949.91601562 C-160.68938846 948.73661095 -158.63998189 947.55809794 -156.58984375 946.38085938 C-149.46354092 942.27683012 -142.37985743 938.10301147 -135.30175781 933.91650391 C-134.28369049 933.31461746 -133.26562317 932.71273102 -132.21670532 932.09260559 C-129.72246143 930.61795271 -127.22835504 929.14306782 -124.734375 927.66796875 C-124.73301847 928.45825726 -124.73166194 929.24854576 -124.73026431 930.06278241 C-124.6495726 976.92640947 -124.55860094 1023.79000695 -124.45432339 1070.65358777 C-124.44180488 1076.28354402 -124.42937205 1081.91350047 -124.41699219 1087.54345703 C-124.4132932 1089.22465524 -124.4132932 1089.22465524 -124.40951948 1090.93981706 C-124.36982154 1109.07542429 -124.33706108 1127.21103774 -124.30687518 1145.34666301 C-124.27573505 1163.96257353 -124.23711469 1182.57845774 -124.19158494 1201.19433868 C-124.16373704 1212.67656529 -124.14168798 1224.15877272 -124.12711249 1235.64102398 C-124.11655105 1243.52030139 -124.09870816 1251.39954161 -124.07520796 1259.27879097 C-124.06187297 1263.82118351 -124.05168267 1268.36352404 -124.05016136 1272.90593719 C-124.04869467 1277.0726431 -124.03799107 1281.23922399 -124.02024059 1285.4058914 C-124.01542926 1286.90545053 -124.01387664 1288.40502482 -124.01609619 1289.90459003 C-124.08438514 1308.51536009 -124.08438514 1308.51536009 -118.234375 1325.91796875 C-117.88181641 1326.58634766 -117.52925781 1327.25472656 -117.16601562 1327.94335938 C-109.97371449 1340.93468865 -98.5836378 1348.16865989 -84.71875 1352.640625 C-66.17562787 1356.73420898 -50.56104285 1348.55544359 -35.29443359 1339.21337891 C-30.3414297 1336.22343854 -25.31341438 1333.36204155 -20.296875 1330.48046875 C-18.04806347 1329.18509304 -15.79936692 1327.88951772 -13.55078125 1326.59375 C-12.42172363 1325.9435791 -11.29266602 1325.2934082 -10.12939453 1324.62353516 C-4.6626752 1321.47464821 0.80137387 1318.32113611 6.265625 1315.16796875 C8.43227811 1313.91794525 10.59894479 1312.66794528 12.765625 1311.41796875 C14.374375 1310.48984375 14.374375 1310.48984375 16.015625 1309.54296875 C77.76562499 1273.91796875 77.76562499 1273.91796875 81.01611328 1272.04272461 C83.18119571 1270.79361357 85.34623482 1269.54442746 87.51123047 1268.29516602 C92.95178206 1265.15594566 98.39309716 1262.01806312 103.8359375 1258.8828125 C114.28768699 1252.86049546 124.72862048 1246.82127538 135.140625 1240.73046875 C144.41062277 1235.30875697 153.72394252 1229.9659196 163.05407715 1224.64874268 C172.1784534 1219.44751746 181.26695274 1214.18768997 190.33251953 1208.88452148 C200.85647125 1202.73030133 211.41942637 1196.64426879 221.98339844 1190.55908203 C227.41222442 1187.43116727 232.83881781 1184.29938427 238.265625 1181.16796875 C240.43228083 1179.91794996 242.5989475 1178.66794997 244.765625 1177.41796875 C246.374375 1176.48984375 246.374375 1176.48984375 248.015625 1175.54296875 C283.765625 1154.91796875 283.765625 1154.91796875 287.01611328 1153.04272461 C289.18119571 1151.79361357 291.34623482 1150.54442746 293.51123047 1149.29516602 C300.04633626 1145.52438344 306.58301031 1141.75633998 313.12109375 1137.99072266 C316.3614103 1136.12231432 319.59872827 1134.2487856 322.8359375 1132.375 C327.1709738 1129.86791942 331.52115098 1127.39012847 335.8828125 1124.9296875 C338.01045824 1123.71752088 340.13806395 1122.505284 342.265625 1121.29296875 C343.2261377 1120.75857178 344.18665039 1120.2241748 345.17626953 1119.67358398 C358.47460881 1112.0516503 370.27794933 1100.96988469 374.453125 1085.79296875 C376.72656236 1074.98976422 376.4095619 1064.00161857 376.39933777 1053.02032471 C376.40120756 1051.11601363 376.40350894 1049.21170293 376.40620309 1047.30739284 C376.41230659 1042.08948344 376.41218921 1036.87159009 376.41100872 1031.65367794 C376.41080434 1026.02026562 376.41632693 1020.38685841 376.42106628 1014.75344849 C376.42936532 1003.72236774 376.43212078 992.69129234 376.43267866 981.66020873 C376.43315415 972.69222121 376.43521056 963.72423544 376.43837929 954.75624847 C376.44575159 933.45752075 376.45190434 912.1587945 376.45138073 890.86006546 C376.45136515 890.17939724 376.45134957 889.49872902 376.45133352 888.79743448 C376.45125042 885.34776846 376.45115138 881.89810243 376.45104881 878.44843641 C376.45102887 877.76335844 376.45100892 877.07828048 376.45098837 876.37244258 C376.45094794 874.98704897 376.45090614 873.60165537 376.45086298 872.21626177 C376.45025032 850.6650011 376.45775626 829.11375617 376.47143555 807.5625 C376.48680906 783.33224064 376.49538835 759.10199485 376.49447232 734.87172961 C376.49414052 722.04883023 376.49688061 709.22594859 376.50765038 696.40305328 C376.51676098 685.48583181 376.51892599 674.56863614 376.51214095 663.65141252 C376.50887867 658.08415801 376.5088086 652.516953 376.5174942 646.94970322 C376.52537285 641.8471066 376.52391381 636.7445986 376.51521007 631.6420041 C376.5136781 629.80222721 376.51547975 627.96244365 376.52107015 626.12267461 C376.57642893 606.6018669 375.48779069 588.47446109 361.3046875 573.61328125 C350.25925762 563.04635375 338.3708092 559.56688171 323.53515625 559.20703125 C312.74798646 559.88976352 303.15778402 564.94285543 294.015625 570.29296875 C292.92499756 570.9176001 291.83437012 571.54223145 290.71069336 572.18579102 C287.55380619 573.99894523 284.40781669 575.82949127 281.265625 577.66796875 C280.4813916 578.12510254 279.6971582 578.58223633 278.88916016 579.05322266 C275.51731255 581.02124232 272.1546278 583.00413877 268.796875 584.99609375 C263.16694645 588.32798783 257.4964333 591.58944548 251.828125 594.85546875 C250.72090088 595.49347412 249.61367676 596.13147949 248.47290039 596.78881836 C246.20225432 598.09686352 243.93150142 599.40472323 241.66064453 600.71240234 C236.19392525 603.86128926 230.72984854 607.01475365 225.265625 610.16796875 C218.74330061 613.9316224 212.22048737 617.69441498 205.6953125 621.453125 C195.20330406 627.49852034 184.72080824 633.55907094 174.265625 639.66796875 C162.71832984 646.41498069 151.13660473 653.10136193 139.54785156 659.77685547 C134.11902558 662.90477023 128.69243219 666.03655323 123.265625 669.16796875 C121.09896917 670.41798754 118.9323025 671.66798753 116.765625 672.91796875 C115.693125 673.53671875 114.620625 674.15546875 113.515625 674.79296875 C25.765625 725.41796875 25.765625 725.41796875 22.51000977 727.29614258 C20.36198454 728.53543142 18.21403425 729.77485016 16.06616211 731.0144043 C10.97906951 733.94999442 5.89120653 736.88422547 0.8006897 739.81387329 C-1.60981248 741.2012497 -4.01988876 742.58936499 -6.42993164 743.97753906 C-8.13581468 744.9597069 -9.84231486 745.9408026 -11.54882812 746.921875 C-13.09280273 747.81132813 -13.09280273 747.81132813 -14.66796875 748.71875 C-15.57603271 749.24122314 -16.48409668 749.76369629 -17.41967773 750.30200195 C-19.22563701 751.36774841 -20.98958629 752.50477627 -22.734375 753.66796875 C-22.73573153 752.88017593 -22.73708806 752.09238312 -22.73848569 751.28071779 C-22.8191877 704.55898564 -22.91016356 657.83728314 -23.01442661 611.11559733 C-23.02694504 605.50195112 -23.03937788 599.88830472 -23.05175781 594.2746582 C-23.0554568 592.59833938 -23.0554568 592.59833938 -23.05923052 590.88815553 C-23.0989221 572.80818935 -23.13168536 554.72821695 -23.16187482 536.64823269 C-23.19302142 518.08768792 -23.23164451 499.5271695 -23.27716506 480.96665436 C-23.30500479 469.51974655 -23.32705736 458.07285794 -23.34163751 446.62592543 C-23.35220374 438.7695344 -23.37005163 430.91318062 -23.39354204 423.0568177 C-23.40686928 418.52847813 -23.41706611 414.0001906 -23.41858864 409.47183037 C-23.42005692 405.31679144 -23.43077647 401.16187759 -23.44850941 397.00687719 C-23.45331491 395.51268383 -23.45487619 394.01847527 -23.45265381 392.52427583 C-23.30618324 373.32154269 -23.30618324 373.32154269 -29.234375 355.35546875 C-29.58693359 354.69160156 -29.93949219 354.02773438 -30.30273438 353.34375 C-37.46093715 340.50145951 -49.02843299 332.74512573 -62.99609375 328.73046875 C-69.95885546 327.36261379 -76.39072829 327.39923941 -83.359375 328.79296875 Z " fill="#231815" transform="translate(973.734375,59.33203125)"/>
</svg>
